<svg width="29" height="29" viewBox="0 0 29 29" fill="none" xmlns="http://www.w3.org/2000/svg">
<path fill-rule="evenodd" clip-rule="evenodd" d="M14.5 2.9C8.0935 2.9 2.9 8.0935 2.9 14.5C2.9 20.9065 8.0935 26.1 14.5 26.1C20.9065 26.1 26.1 20.9065 26.1 14.5C26.1 8.0935 20.9065 2.9 14.5 2.9ZM0 14.5C0 6.49187 6.49187 0 14.5 0C22.5081 0 29 6.49187 29 14.5C29 22.5081 22.5081 29 14.5 29C6.49187 29 0 22.5081 0 14.5ZM14.5 7.25C15.3008 7.25 15.95 7.89919 15.95 8.7V13.05H20.3C21.1008 13.05 21.75 13.6992 21.75 14.5C21.75 15.3008 21.1008 15.95 20.3 15.95H15.95V20.3C15.95 21.1008 15.3008 21.75 14.5 21.75C13.6992 21.75 13.05 21.1008 13.05 20.3V15.95H8.7C7.89919 15.95 7.25 15.3008 7.25 14.5C7.25 13.6992 7.89919 13.05 8.7 13.05H13.05V8.7C13.05 7.89919 13.6992 7.25 14.5 7.25Z" fill="#5BC5C9"/>
</svg>
